<svg width="1876" height="211" viewBox="0 0 1876 211" fill="none" xmlns="http://www.w3.org/2000/svg">
<path fill-rule="evenodd" clip-rule="evenodd" d="M36.1172 61.4887C3.40309 90.3072 -0.54919 94.5522 0.0543152 100.206C0.592025 105.216 8.39221 113.281 36.9725 138.372L73.2123 170.185L78.6598 164.738C81.6546 161.741 83.3948 158.138 82.5236 156.731C81.6546 155.322 67.4904 142.358 51.0482 127.922C34.6061 113.485 20.8639 100.896 20.5077 99.9474C19.9632 98.4909 64.643 57.0305 79.8282 44.9059L84.6812 41.0308L72.8607 29.1218L36.1172 61.4887ZM1796.62 35.5357C1793.99 38.88 1792.63 42.2855 1793.6 43.1022C1814.47 60.6515 1855.5 98.6247 1855.01 99.9429C1854.65 100.916 1840.32 114.114 1823.16 129.267C1806.01 144.423 1791.97 157.603 1791.97 158.558C1791.97 159.515 1794.31 162.501 1797.18 165.199L1802.4 170.099L1838.59 138.329C1867.16 113.247 1874.92 105.218 1875.46 100.197C1876.06 94.5409 1872.28 90.4366 1841.43 63.238C1822.33 46.4079 1805.52 31.9215 1804.06 31.0457C1802.53 30.1314 1799.37 32.0417 1796.62 35.5357ZM1119.64 49.16C1118.81 49.9904 1118.13 76.025 1118.13 107.015C1118.13 161.843 1118.25 163.356 1122.67 163.356C1127.08 163.356 1127.2 161.843 1127.2 105.502C1127.2 58.8024 1126.62 47.6467 1124.18 47.6467C1122.51 47.6467 1120.47 48.3273 1119.64 49.16ZM1307.26 53.3187C1305.46 58.0015 1307.9 63.5284 1311.76 63.5284C1316.41 63.5284 1320.36 57.8881 1318.71 53.6068C1316.93 48.9717 1309.01 48.772 1307.26 53.3187ZM1254.26 70.3348V81.6789H1245.02C1237.44 81.6789 1235.91 82.3936 1236.53 85.6494C1237.05 88.406 1239.82 89.833 1245.6 90.314L1253.92 91.0083L1254.65 122.413C1255.47 157.033 1257.19 161.646 1270.36 164.541C1279.09 166.458 1292.99 161.877 1291.35 157.621C1290.45 155.266 1287.61 154.771 1280.55 155.74C1264.82 157.895 1263.33 154.828 1263.33 120.199V90.9811L1276.35 90.3004C1286.63 89.7627 1289.54 88.7803 1290.14 85.6494C1290.79 82.2212 1289.01 81.6789 1277.11 81.6789H1263.33V70.3348C1263.33 60.504 1262.73 58.9907 1258.79 58.9907C1254.86 58.9907 1254.26 60.504 1254.26 70.3348ZM953.384 83.9024C946.745 86.5841 938.891 97.1273 938.891 103.353C938.891 116.061 945.257 120.578 970.716 125.934C991.743 130.356 995.62 132.578 995.577 140.18C995.532 148.262 993.454 151.22 985.776 154.138C972.771 159.084 956.113 156.153 946.605 147.248C942.203 143.125 941.604 143.071 938.732 146.533C936.014 149.805 936.461 150.95 942.253 155.567C952.404 163.66 968.651 166.796 983.378 163.499C998.844 160.039 1005.2 152.797 1004.23 139.731C1003.35 127.933 995.237 122.211 973.828 118.295C954.968 114.844 947.966 110.767 947.966 103.233C947.966 91.0401 974.098 85.1343 990.277 93.6719C996.41 96.905 997.803 96.9843 1000.09 94.23C1006.89 86.0396 968.889 77.6382 953.384 83.9024ZM1039.85 85.7946C1030.34 91.8795 1023.91 99.6457 1020.88 108.676C1009.98 141.235 1036.26 170.959 1069.4 163.542C1104.47 155.695 1113.02 109.531 1083.46 87.63C1074.31 80.8508 1049.22 79.7958 1039.85 85.7946ZM1149.9 110.441C1149.9 145.542 1152.49 152.72 1167.96 160.52C1180.87 167.032 1189.58 166.966 1202.82 160.262C1212.76 155.234 1213.42 155.164 1213.42 159.127C1213.42 161.843 1215.04 163.356 1217.96 163.356C1222.33 163.356 1222.49 161.843 1222.49 122.352C1222.49 84.5218 1222.18 81.4044 1218.52 82.1032C1215.07 82.7634 1214.4 86.5501 1213.42 111.314C1212.11 144.226 1209.6 150.254 1195.5 154.481C1183.88 157.959 1172.36 155.62 1165.57 148.403C1160.51 143.025 1160.02 140.36 1158.97 112.728C1157.97 86.6181 1157.33 82.768 1153.86 82.1055C1150.25 81.4135 1149.89 83.9545 1149.9 110.441ZM1308.03 83.1128C1307.16 83.9886 1306.44 102.4 1306.44 124.031V163.356H1317.89L1317.27 123.114C1316.74 88.9074 1316.12 82.7702 1313.13 82.1962C1311.2 81.8264 1308.91 82.2371 1308.03 83.1128ZM1359.64 84.8711C1347.01 90.3753 1335.99 108.279 1335.95 123.389C1335.89 141.814 1349.52 158.996 1367.63 163.34C1402.63 171.735 1430.6 138.009 1415.59 105.502C1410.75 95.0014 1403.29 87.5393 1394.21 84.0997C1385.53 80.81 1368.07 81.2002 1359.64 84.8711ZM1437.28 83.1922C1436.44 84.0226 1435.76 102.4 1435.76 124.031V163.356H1447.11V135.171C1447.11 108.226 1447.36 106.679 1452.92 100.07C1458.46 93.4904 1471.61 87.8319 1477.34 89.5653C1478.8 90.0123 1482.84 90.9992 1486.31 91.7593C1498.15 94.3571 1501.54 104.099 1501.55 135.563C1501.56 161.841 1501.8 163.356 1506.1 163.356C1510.39 163.356 1510.63 161.845 1510.63 135.563C1510.63 103.761 1507.95 95.521 1494.75 86.6295C1488.03 82.1009 1484.64 81.4157 1472.67 82.1531C1460.82 82.8814 1457.42 84.0861 1451.68 89.5812L1444.84 96.1404V88.9096C1444.84 82.11 1441.15 79.3193 1437.28 83.1922ZM1543.28 83.7867C1536.42 86.7202 1528.78 97.2271 1528.78 103.714C1528.78 112.886 1539.77 121.667 1555.02 124.687C1583.8 130.384 1589.95 134.656 1585.64 145.97C1581.04 158.07 1553.51 159.837 1539.24 148.949C1532.84 144.071 1531.07 143.59 1528.93 146.159C1526.97 148.525 1527.24 150.14 1530.05 152.958C1540.31 163.218 1559.73 167.712 1575.14 163.397C1589.51 159.375 1595.04 152.7 1594.15 140.444C1593.25 127.865 1585.59 122.295 1563.72 118.295C1544.86 114.844 1537.86 110.767 1537.86 103.233C1537.86 91.0401 1563.99 85.1343 1580.17 93.6719C1586.12 96.8097 1587.74 96.9299 1589.85 94.3843C1591.82 92.0134 1590.98 90.3889 1586.11 87.1377C1579.08 82.4458 1551.45 80.2836 1543.28 83.7867ZM1074.55 93.0048C1100.36 104.719 1097.64 146.413 1070.53 154.533C1048.67 161.083 1027.37 145.861 1027.37 123.693C1027.37 104.004 1040.85 89.7105 1060.27 88.7985C1062.77 88.6805 1069.19 90.5749 1074.55 93.0048ZM1392.57 93.5902C1421.97 108.666 1413.83 152.446 1381 155.79C1354.85 158.453 1338.05 133.236 1349.2 108.038C1352.92 99.6139 1355.9 96.5147 1363.63 93.0048C1376.2 87.301 1380.48 87.3873 1392.57 93.5902ZM907.949 155.415C906.15 160.098 908.589 165.625 912.45 165.625C917.094 165.625 921.047 159.985 919.402 155.704C917.623 151.068 909.693 150.869 907.949 155.415Z" fill="#2D9FE0"/>
<path fill-rule="evenodd" clip-rule="evenodd" d="M289.403 81.6774C289.403 161.842 289.487 163.355 293.94 163.355C297.888 163.355 298.478 161.842 298.478 151.723V140.088L308.311 149.152C320.467 160.358 331.705 164.364 350.189 164.085C385.34 163.555 409.028 134.017 404.101 96.8626C402.465 84.5452 394.444 66.8802 387.733 60.8156C378.824 52.7659 363.527 47.745 347.752 47.6951C329.35 47.6361 318.575 51.67 306.986 62.9642L298.478 71.2545V35.6272C298.478 1.5133 298.285 0 293.94 0C289.487 0 289.403 1.51331 289.403 81.6774ZM157.414 60.7521C125.993 88.2615 121.83 92.7198 121.68 99.0339C121.526 105.48 124.945 109.214 156.461 137.037C175.685 154.007 192.372 167.892 193.545 167.892C194.718 167.892 197.527 165.851 199.785 163.355C203.728 158.999 203.73 158.64 199.839 154.341C197.611 151.879 183.159 138.913 167.724 125.527C152.289 112.141 139.661 100.475 139.661 99.6011C139.661 98.4168 183.381 58.5014 201.638 43.0145C202.657 42.1501 201.125 38.7832 198.235 35.5319L192.978 29.6194L157.414 60.7521ZM1675.08 35.2937C1672.9 38.1887 1671.11 40.9635 1671.11 41.4604C1671.11 42.3407 1721.34 87.7374 1730.68 95.2994C1735.24 98.9953 1734.61 99.7236 1702.04 128.274L1668.73 157.472L1679.79 168.53L1686.57 163.105C1690.3 160.124 1706.17 146.452 1721.84 132.726C1760.83 98.5688 1760.95 101.06 1718.36 63.5155C1676.79 26.8741 1679.9 28.9047 1675.08 35.2937ZM680.057 47.7178C653.555 53.1607 636.682 75.0434 636.582 104.102C636.516 122.893 640.017 134.083 649.38 145.023C660.656 158.196 673.08 163.355 693.522 163.355C722.348 163.355 741.626 150.264 749.029 125.661C755.08 105.554 752.6 88.0165 741.151 69.9658C730.134 52.5935 703.514 42.8988 680.057 47.7178ZM820.118 47.4636C810.536 49.3649 796.343 57.6665 794.512 62.4379C792 68.9811 788.543 65.6686 788.543 56.7204C788.543 49.1585 787.787 47.6452 784.005 47.6452C779.585 47.6452 779.467 49.1585 779.467 105.5V163.355H790.811V125.847C790.811 84.8402 792.263 78.2197 803.578 67.6425C822.845 49.6281 856.022 54.522 867.384 77.0536C872.074 86.3512 872.489 90.2785 872.489 125.266V163.355H883.833V130.766C883.833 92.9671 881.376 77.1035 873.734 65.5575C864.589 51.7358 840.147 43.4887 820.118 47.4636ZM441.804 102.664C454.162 132.925 464.401 159.214 464.558 161.086C464.717 162.958 460.594 174.393 455.399 186.495C450.203 198.596 445.951 209.062 445.951 209.75C445.951 210.437 448.327 211 451.231 211C456.009 211 459.668 203.613 489.728 133.293C530.63 37.6079 527.052 47.6452 520.246 47.6452C514.125 47.6452 514.594 46.7149 486.756 114.14C479.641 131.371 473.034 145.665 472.07 145.903C471.108 146.144 461.529 124.134 450.784 96.9919C432.259 50.2021 430.938 47.6452 425.291 47.6452H419.336L441.804 102.664ZM550.317 105.5C550.317 161.842 550.435 163.355 554.854 163.355C559.192 163.355 559.392 161.837 559.406 128.755C559.413 109.725 560.538 90.1197 561.908 85.1873C567.204 66.1088 588.986 53.3875 607.772 58.4016C616.866 60.8293 622.919 59.2275 622.919 54.3949C622.919 51.3524 609.106 47.6452 597.771 47.6452C583.893 47.6452 575.975 50.6922 566.766 59.5746L559.392 66.6851V57.1651C559.392 49.1585 558.671 47.6452 554.854 47.6452C550.435 47.6452 550.317 49.1585 550.317 105.5ZM374.186 65.0198C400.534 83.3178 400.629 127.619 374.359 145.86C354.756 159.471 326.487 155.927 311.077 137.924C290.226 113.563 298.185 74.2561 326.677 60.8701C340.347 54.4493 361.646 56.3098 374.186 65.0198ZM720.825 64.7657C726.057 68.4525 732.793 76.0621 735.79 81.6774C740.401 90.3148 741.122 94.3987 740.464 108.193C739.811 121.924 738.619 126.012 732.92 134.083C710.45 165.891 660.3 158.143 648.609 121.055C641.185 97.5047 651.238 72.9992 672.965 61.6801C687.467 54.1249 707.557 55.4204 720.825 64.7657Z" fill="#2D9FE0"/>
</svg>
